<svg width="13" height="14" viewBox="0 0 13 14" fill="none" xmlns="http://www.w3.org/2000/svg">
<path d="M6.95566 1.84599L3.674 4.84593C3.02504 5.43925 2.5831 6.19517 2.40407 7.01809C2.22505 7.84101 2.31698 8.69398 2.66824 9.46915C3.01949 10.2443 3.61431 10.9068 4.37746 11.373C5.14061 11.8391 6.03783 12.0879 6.95566 12.0879C7.87348 12.0879 8.7707 11.8391 9.53385 11.373C10.297 10.9068 10.8918 10.2443 11.2431 9.46915C11.5943 8.69398 11.6863 7.84101 11.5072 7.01809C11.3282 6.19517 10.8863 5.43925 10.2373 4.84593L6.95566 1.84599ZM6.95566 0.13208L11.1747 3.98898C12.0092 4.7518 12.5774 5.72369 12.8077 6.78174C13.0379 7.8398 12.9197 8.9365 12.4681 9.93317C12.0165 10.9298 11.2517 11.7817 10.2705 12.381C9.28933 12.9804 8.13574 13.3003 6.95566 13.3003C5.77557 13.3003 4.62198 12.9804 3.64078 12.381C2.65957 11.7817 1.89481 10.9298 1.44321 9.93317C0.991604 8.9365 0.87344 7.8398 1.10366 6.78174C1.33388 5.72369 1.90214 4.7518 2.73658 3.98898L6.95566 0.13208Z" fill="#202020"/>
</svg>
