<svg width="14" height="11" viewBox="0 0 14 11" fill="none" xmlns="http://www.w3.org/2000/svg">
<path d="M11.1742 5.39178C11.3447 5.45771 11.3447 5.69891 11.1742 5.76485L2.76756 9.01618C2.59335 9.08356 2.43006 8.89653 2.52032 8.733L3.87225 6.28353C4.10982 5.8434 4.10982 5.31323 3.87225 4.87309L2.52032 2.42362C2.43006 2.26009 2.59335 2.07307 2.76756 2.14045L11.1742 5.39178ZM12.45 6.51314C13.3099 6.18651 13.3099 4.97011 12.45 4.64348L1.30197 0.408818C1.10901 0.335518 0.891168 0.377882 0.739737 0.518159C0.565268 0.679777 0.516167 0.936071 0.618548 1.15073L2.31966 4.71732C2.57941 5.26193 2.57941 5.8947 2.31966 6.4393L0.618548 10.0059C0.516167 10.2206 0.565268 10.4768 0.739737 10.6385C0.891168 10.7787 1.109 10.8211 1.30197 10.7478L12.45 6.51314Z" fill="#202020"/>
</svg>
